<?xml version="1.0"?><svg version="1.2" baseProfile="tiny-ps" viewBox="0 0 300 300" xmlns="http://www.w3.org/2000/svg" xmlns:xlink="http://www.w3.org/1999/xlink"><title>Wind Leads AI</title><g><g fill="#f99227" transform="matrix(.1 0 0 -.1 0 300)"><path d="M1442 2293c-42-37-122-107-177-157-55-49-103-92-108-96l-7-6 75-26 76-26 37 31c20 17 71 62 113 99l77 68 206-177 205-178 1-234v-233l-27 7c-238 60-531 72-759 29l-31-6-6 89-5 88-12 33-12 32h-16c-10 0-22-4-29-8l-12-8-8-127-8-128-68-24c-38-13-79-31-93-40l-25-16 6-9 6-10h43c24 0 85 9 137 19 52 11 134 25 183 32l89 11 231-5 231-5 110-21c61-12 133-24 162-27l51-7 27 7 26 7-6 10c-4 5-24 17-46 26l-39 15v159l55 66 55 67 22 55 21 56v150l-25 50c-15 28-41 65-60 82l-34 33v-54c-1-29-5-59-9-66l-7-12-29 27-28 28 1 56v56l-11 30c-19 49-60 102-100 129-46 32-53 33-41 0 11-28 13-104 4-128l-6-16-117 103c-171 151-191 167-201 167-6 0-45-30-88-67zm-494-166-47-14-35-27c-20-15-44-41-53-59l-17-32 1-45v-45l21-42 22-42 36-25 37-25 29 30c16 16 35 29 42 29h13l7 48 6 47 30 63c17 35 39 76 50 90l21 26-13 13-13 13-45 5-45 5-47-13zm224-234c-18-8-44-29-57-45l-25-29 20-37c11-20 20-42 20-48v-12l25-6c34-9 88-58 122-112l28-45 20 3 20 3 24 49 25 49v123l-25 43-24 44-35 19-35 18h-70l-33-17zm-207-108-25-24v-58l21-27 20-26h78l20 26 21 27v58l-25 24-24 25h-62l-24-25zm545-30v-55h100v110h-100v-55zm130 0v-55h110v110h-110v-55zm-994 29c-10-26-7-109 5-145 16-46 55-97 93-120l31-19h90l33 20 32 20 20 32c11 18 20 40 20 49v17l-15 6c-8 3-20 17-26 30l-12 25-41 7c-65 11-118 32-158 64-20 17-43 30-51 30h-15l-6-16zm864-159v-55h112l-6 16c-3 9-6 33-6 55v39h-100v-55zm137 49c-4-4-7-29-7-56v-48h111l-3 53-3 52-45 3c-25 2-49 0-53-4zM376 1073c4-16 19-68 33-118l26-90h59l21 74 22 75 5-10c3-5 8-22 12-39 4-16 12-47 17-67l10-38h58l11 43c7 23 20 73 31 112 24 87 24 85-6 85h-24l-10-38c-6-21-14-53-17-70-4-18-10-35-14-37l-8-5-18 75-18 75h-55l-11-42c-6-24-16-61-22-83l-11-40-21 83-20 82h-56l6-27zm354-93V860h50v240h-50V980zm92 3 3-118h50l-3 73c-2 39-2 72 1 72 2 0 26-34 53-75l49-75h45v240h-50V955l-48 72-47 73h-56l3-117zm238-3V857l63 5 64 5 25 17 26 17 12 30 13 29-6 42-6 41-25 26-26 25-70 4-70 4V980zm130 51c5-11 10-34 10-52v-32l-17-19-16-18h-57v140h69l11-19zm162-48 3-118 68-3 67-3v51h-80v190h-61l3-117zm168-3V860h140v50h-90v50h90v39l-42 3-43 3-3 23-3 22h91v50h-140V980zm207 7c-20-62-37-116-37-121v-7l28 3 27 3 3 23 3 22h89l6-25 6-25h60l-4 13c-3 6-22 60-44 120l-38 107h-62l-37-113zm88-4 7-33h-53l5 18c3 9 8 30 12 46l7 29 7-14c4-8 11-29 15-46zm117 0 3-118 60 1 61 1 26 17 27 17 10 31c15 42 14 74-4 108l-15 30-30 15-29 15h-112l3-117zm122 51 16-15v-72l-17-19-16-18h-57v140h59l15-16zm118 43-22-23v-51l18-15c9-9 34-23 55-32l39-16-5-12-4-13-46 2-46 1-6-16-6-16 17-13 18-13h77l24 25 25 24v20c0 11-3 27-6 36l-7 17-43 19-44 18v16c0 21 21 28 52 16l26-10 6 22 5 21-12 8c-7 4-30 8-53 8h-41l-21-23zm254-85c-20-59-36-113-36-120v-12h50l6 25 6 25h86l6-25 6-25h50v13c0 6-17 60-37 119l-38 108h-63l-36-108zm93-28 1-11-26 5-25 5 5 14c4 8 9 27 13 41l6 27 13-35c7-19 13-40 13-46zm111 16V860h50v240h-50V980z"/></g><g fill="#f5782c" transform="matrix(.1 0 0 -.1 0 300)"><path d="m948 2127-47-14-35-27c-20-15-44-41-53-59l-17-32 1-45v-45l21-42 22-42 36-25 37-25 29 30c16 16 35 29 42 29h13l7 48 6 47 30 63c17 35 39 76 50 90l21 26-13 13-13 13-45 5-45 5-47-13zm1122-101v-17l9 6 10 5 8-12c4-7 8-18 9-24l2-11-17 1-16 1-3-25c-4-26-16-44-32-46-6-1-14-2-19-3-5 0-25-17-45-36l-36-35v-472l-27 7c-238 60-531 72-759 29l-31-6-6 89-5 88-12 33-12 32h-16c-10 0-22-4-29-8l-12-8-8-127-8-128-68-24c-38-13-79-31-93-40l-25-16 6-9 6-10h43c24 0 85 9 137 19 52 11 134 25 183 32l89 11 231-5 231-5 110-21c61-12 133-24 162-27l51-7 27 7 26 7-6 10c-4 5-24 17-46 26l-39 15v159l55 66 55 67 22 55 21 56v150l-25 50c-15 28-42 66-62 84l-36 35v-18zm-50-90c0-2 8-10 18-17l17-14-14 18c-13 16-21 21-21 13zm-848-43c-18-8-44-29-57-45l-25-29 20-37c11-20 20-42 20-48v-12l25-6c34-9 88-58 122-112l28-45 20 3 20 3 24 49 25 49v123l-25 43-24 44-35 19-35 18h-70l-33-17zm-207-108-25-24v-58l21-27 20-26h78l20 26 21 27v58l-25 24-24 25h-62l-24-25zm-319-1c-10-26-7-109 5-145 16-46 55-97 93-120l31-19h90l33 20 32 20 20 32c11 18 20 40 20 49v17l-15 6c-8 3-20 17-26 30l-12 25-41 7c-65 11-118 32-158 64-20 17-43 30-51 30h-15l-6-16zm-270-711c4-16 19-68 33-118l26-90h59l21 74 22 75 5-10c3-5 8-22 12-39 4-16 12-47 17-67l10-38h58l11 43c7 23 20 73 31 112 24 87 24 85-6 85h-24l-10-38c-6-21-14-53-17-70-4-18-10-35-14-37l-8-5-18 75-18 75h-55l-11-42c-6-24-16-61-22-83l-11-40-21 83-20 82h-56l6-27zm354-93V860h50v240h-50V980zm92 3 3-118h50l-3 73c-2 39-2 72 1 72 2 0 26-34 53-75l49-75h45v240h-50V955l-48 72-47 73h-56l3-117zm238-3V857l63 5 64 5 25 17 26 17 12 30 13 29-6 42-6 41-25 26-26 25-70 4-70 4V980zm130 51c5-11 10-34 10-52v-32l-17-19-16-18h-57v140h69l11-19zm162-48 3-118 68-3 67-3v51h-80v190h-61l3-117zm168-3V860h140v50h-90v50h90v39l-42 3-43 3-3 23-3 22h91v50h-140V980zm207 7c-20-62-37-116-37-121v-7l28 3 27 3 3 23 3 22h89l6-25 6-25h60l-4 13c-3 6-22 60-44 120l-38 107h-62l-37-113zm88-4 7-33h-53l5 18c3 9 8 30 12 46l7 29 7-14c4-8 11-29 15-46zm117 0 3-118 60 1 61 1 26 17 27 17 10 31c15 42 14 74-4 108l-15 30-30 15-29 15h-112l3-117zm122 51 16-15v-72l-17-19-16-18h-57v140h59l15-16zm118 43-22-23v-51l18-15c9-9 34-23 55-32l39-16-5-12-4-13-46 2-46 1-6-16-6-16 17-13 18-13h77l24 25 25 24v20c0 11-3 27-6 36l-7 17-43 19-44 18v16c0 21 21 28 52 16l26-10 6 22 5 21-12 8c-7 4-30 8-53 8h-41l-21-23zm254-85c-20-59-36-113-36-120v-12h50l6 25 6 25h86l6-25 6-25h50v13c0 6-17 60-37 119l-38 108h-63l-36-108zm93-28 1-11-26 5-25 5 5 14c4 8 9 27 13 41l6 27 13-35c7-19 13-40 13-46zm111 16V860h50v240h-50V980z"/></g><g fill="#ec5d36" transform="matrix(.1 0 0 -.1 0 300)"><path d="m948 2127-47-14-35-27c-20-15-44-41-53-59l-17-32 1-45v-45l21-42 22-42 36-25 37-25 29 30c16 16 35 29 42 29h13l7 48 6 47 30 63c17 35 39 76 50 90l21 26-13 13-13 13-45 5-45 5-47-13zm224-234c-18-8-44-29-57-45l-25-29 20-37c11-20 20-42 20-48v-12l25-6c34-9 88-58 122-112l28-45 20 3 20 3 24 49 25 49v123l-25 43-24 44-35 19-35 18h-70l-33-17zm-207-108-25-24v-58l21-27 20-26h78l20 26 21 27v58l-25 24-24 25h-62l-24-25zm-319-1c-10-26-7-109 5-145 16-46 55-97 93-120l31-19h90l33 20 32 20 20 32c11 18 20 40 20 49v17l-15 6c-8 3-20 17-26 30l-12 25-41 7c-65 11-118 32-158 64-20 17-43 30-51 30h-15l-6-16zm397-162-12-8-8-127-8-128-68-24c-38-13-79-31-93-40l-25-16 6-9 6-10h43c24 0 85 9 137 19 52 11 134 25 183 32l89 11 231-5 231-5 110-21c61-12 133-24 162-27l51-7 27 7 26 7-6 10c-4 5-24 17-46 26l-39 15v43l-9-14-9-14-34 9-33 10-6 49-6 50-1-49-2-48-27 7c-238 60-531 72-759 29l-31-6-6 89-5 88-12 33-12 32h-16c-10 0-22-4-29-8zm-667-549c4-16 19-68 33-118l26-90h59l21 74 22 75 5-10c3-5 8-22 12-39 4-16 12-47 17-67l10-38h58l11 43c7 23 20 73 31 112 24 87 24 85-6 85h-24l-10-38c-6-21-14-53-17-70-4-18-10-35-14-37l-8-5-18 75-18 75h-55l-11-42c-6-24-16-61-22-83l-11-40-21 83-20 82h-56l6-27zm354-93V860h50v240h-50V980zm92 3 3-118h50l-3 73c-2 39-2 72 1 72 2 0 26-34 53-75l49-75h45v240h-50V955l-48 72-47 73h-56l3-117zm238-3V857l63 5 64 5 25 17 26 17 12 30 13 29-6 42-6 41-25 26-26 25-70 4-70 4V980zm130 51c5-11 10-34 10-52v-32l-17-19-16-18h-57v140h69l11-19zm162-48 3-118 68-3 67-3v51h-80v190h-61l3-117zm168-3V860h140v50h-90v50h90v39l-42 3-43 3-3 23-3 22h91v50h-140V980zm207 7c-20-62-37-116-37-121v-7l28 3 27 3 3 23 3 22h89l6-25 6-25h60l-4 13c-3 6-22 60-44 120l-38 107h-62l-37-113zm88-4 7-33h-53l5 18c3 9 8 30 12 46l7 29 7-14c4-8 11-29 15-46zm117 0 3-118 60 1 61 1 26 17 27 17 10 31c15 42 14 74-4 108l-15 30-30 15-29 15h-112l3-117zm122 51 16-15v-72l-17-19-16-18h-57v140h59l15-16zm118 43-22-23v-51l18-15c9-9 34-23 55-32l39-16-5-12-4-13-46 2-46 1-6-16-6-16 17-13 18-13h77l24 25 25 24v20c0 11-3 27-6 36l-7 17-43 19-44 18v16c0 21 21 28 52 16l26-10 6 22 5 21-12 8c-7 4-30 8-53 8h-41l-21-23zm254-85c-20-59-36-113-36-120v-12h50l6 25 6 25h86l6-25 6-25h50v13c0 6-17 60-37 119l-38 108h-63l-36-108zm93-28 1-11-26 5-25 5 5 14c4 8 9 27 13 41l6 27 13-35c7-19 13-40 13-46zm111 16V860h50v240h-50V980z"/></g><g fill="#1992dc" transform="matrix(.1 0 0 -.1 0 300)"><path d="m948 2127-47-14-35-27c-20-15-44-41-53-59l-17-32 1-45v-45l21-42 22-42 36-25 37-25 29 30c16 16 35 29 42 29h13l7 48 6 47 30 63c17 35 39 76 50 90l21 26-13 13-13 13-45 5-45 5-47-13zm224-234c-18-8-44-29-57-45l-25-29 20-37c11-20 20-42 20-48v-12l25-6c34-9 88-58 122-112l28-45 20 3 20 3 24 49 25 49v123l-25 43-24 44-35 19-35 18h-70l-33-17zm-207-108-25-24v-58l21-27 20-26h78l20 26 21 27v58l-25 24-24 25h-62l-24-25zm-319-1c-10-26-7-109 5-145 16-46 55-97 93-120l31-19h90l33 20 32 20 20 32c11 18 20 40 20 49v17l-15 6c-8 3-20 17-26 30l-12 25-41 7c-65 11-118 32-158 64-20 17-43 30-51 30h-15l-6-16zm397-162-12-8-8-127-8-128-68-24c-38-13-79-31-93-40l-25-16 6-9 6-10h43c24 0 85 9 137 19 52 11 134 25 183 32l89 11 231-5 231-5 110-21c61-12 133-24 162-27l51-7 27 7 26 7-6 9c-17 27-205 89-352 115l-88 16-160 6-160 5-92-11c-50-6-105-14-121-17l-29-6-6 89-5 88-12 33-12 32h-16c-10 0-22-4-29-8zm-667-549c4-16 19-68 33-118l26-90h59l21 74 22 75 5-10c3-5 8-22 12-39 4-16 12-47 17-67l10-38h58l11 43c7 23 20 73 31 112 24 87 24 85-6 85h-24l-10-38c-6-21-14-53-17-70-4-18-10-35-14-37l-8-5-18 75-18 75h-55l-11-42c-6-24-16-61-22-83l-11-40-21 83-20 82h-56l6-27zm354-93V860h50v240h-50V980zm92 3 3-118h50l-3 73c-2 39-2 72 1 72 2 0 26-34 53-75l49-75h45v240h-50V955l-48 72-47 73h-56l3-117zm238-3V857l63 5 64 5 25 17 26 17 12 30 13 29-6 42-6 41-25 26-26 25-70 4-70 4V980zm130 51c5-11 10-34 10-52v-32l-17-19-16-18h-57v140h69l11-19zm162-48 3-118 68-3 67-3v51h-80v190h-61l3-117zm168-3V860h140v50h-90v50h90v39l-42 3-43 3-3 23-3 22h91v50h-140V980zm207 7c-20-62-37-116-37-121v-7l28 3 27 3 3 23 3 22h89l6-25 6-25h60l-4 13c-3 6-22 60-44 120l-38 107h-62l-37-113zm88-4 7-33h-53l5 18c3 9 8 30 12 46l7 29 7-14c4-8 11-29 15-46zm117 0 3-118 60 1 61 1 26 17 27 17 10 31c15 42 14 74-4 108l-15 30-30 15-29 15h-112l3-117zm122 51 16-15v-72l-17-19-16-18h-57v140h59l15-16zm118 43-22-23v-51l18-15c9-9 34-23 55-32l39-16-5-12-4-13-46 2-46 1-6-16-6-16 17-13 18-13h77l24 25 25 24v20c0 11-3 27-6 36l-7 17-43 19-44 18v16c0 21 21 28 52 16l26-10 6 22 5 21-12 8c-7 4-30 8-53 8h-41l-21-23z"/></g><g fill="#1b8bd0" transform="matrix(.1 0 0 -.1 0 300)"><path d="M1003 2133c9-2 25-2 35 0l17 5h-70l18-5zm-164-70-24-28 28 24c25 23 32 31 24 31-2 0-14-12-28-27zm201-54c-7-11-10-23-7-25 2-2 9 7 15 21 14 30 7 33-8 4zm-248-59v-25l5 13c2 6 2 18 0 25l-5 12v-25zm209-46 1-19 5 13c3 7 2 16-1 19-3 4-6-2-5-13zm118-51-24-28 28 24c25 23 32 31 24 31-2 0-14-12-28-27zm211 23c0-2 8-10 18-17l17-14-14 18c-13 16-21 21-21 13zm-339-32 1-19 5 13c3 7 2 16-1 19-3 4-6-2-5-13zm-146-24c10-11 20-20 23-20s-3 9-13 20-20 20-23 20 3-9 13-20zm183-17c7-3 16-2 19 1 4 3-2 6-13 5l-19-1 13-5zm-69-20-14-18 18 14c9 7 17 15 17 17 0 8-8 3-21-13zm101 13c0-2 8-10 18-17l17-14-14 18c-13 16-21 21-21 13zm-418-36v-25l5 13c2 6 2 18 0 25l-5 12v-25zm299-16 1-19 5 13c3 7 2 16-1 19-3 4-6-2-5-13zm451-19v-30l5 18c2 9 2 23 0 30l-5 12v-30zm-750-40v-30l5 18c2 9 2 23 0 30l-5 12v-30zm216 18c7-3 16-2 19 1 4 3-2 6-13 5l-19-1 13-5zm367-33c10-11 20-20 23-20s-3 9-13 20-20 20-23 20 3-9 13-20zm-248-11c7-7 15-10 18-7s-2 9-12 12l-18 7 12-12zm68 1-20-9h17c9-1 20 4 23 9 7 11 7 11-20 0zm321-35c-9-26-7-32 5-12 6 10 9 21 6 23-2 3-7-2-11-11zm-706-14c0-6 4-13 10-16l10-6-6 15c-7 18-14 21-14 7zm679-38-14-18 18 14c9 7 17 15 17 17 0 8-8 3-21-13zm-659 4c0-2 15-16 33-33l32-29-29 33c-28 30-36 37-36 29zm421-13 1-19 5 13c3 7 2 16-1 19-3 4-6-2-5-13zm-182-21-24-28 28 24c25 23 32 31 24 31-2 0-14-12-28-27zm195-82 1-74 15-4 15-5-12 9-12 9-4 69-4 70 1-74zm-91-11v-75l4 38c2 20 2 54 0 75l-4 37v-75zm-245 53c7-3 16-2 19 1 4 3-2 6-13 5l-19-1 13-5zm550-90c12-2 30-2 40 0l17 5-40-1h-40l23-4zm220 0c12-2 30-2 40 0l17 5-40-1h-40l23-4zm-320-10c6-2 18-2 25 0l12 5h-50l13-5zm445 0c9-2 23-2 30 0l12 5h-60l18-5zm-505-10c7-3 16-2 19 1 4 3-2 6-13 5l-19-1 13-5zm640-10c7-3 16-2 19 1 4 3-2 6-13 5l-19-1 13-5zm40-10c7-3 16-2 19 1 4 3-2 6-13 5l-19-1 13-5zm-465-50c48-2 126-2 175 0l87 3h-350l88-3zm-503-13-15-10h10c6 0 17 5 25 10l15 10h-10c-5 0-17-5-25-10zm338 3c7-3 16-2 19 1 4 3-2 6-13 5l-19-1 13-5zm480 0c7-3 16-2 19 1 4 3-2 6-13 5l-19-1 13-5zm40 0c7-3 16-2 19 1 4 3-2 6-13 5l-19-1 13-5zm-610-10c6-2 18-2 25 0l12 5h-50l13-5zm650 0c6-2 18-2 25 0l12 5h-50l13-5zm-700-10c7-3 16-2 19 1 4 3-2 6-13 5l-19-1 13-5zm770 0c7-3 16-2 19 1 4 3-2 6-13 5l-19-1 13-5zm-830-10c7-3 16-2 19 1 4 3-2 6-13 5l-19-1 13-5zm890 0c7-3 16-2 19 1 4 3-2 6-13 5l-19-1 13-5zm-1069-16 8-8 54 3 54 3-62 5-62 5 8-8zm1189-4c18-2 45-2 60 0l27 4h-120l33-4zM370 1091v-9l21 5 21 6 9-14 9-14v35h-60v-9zm160 2c14-3 28-10 32-17l8-11v35l-32-1-33-2 25-4zm135 0c11-3 23-10 27-17l8-11v35l-27-1-28-1 20-5zm65-113V860l28 1 27 2-22 4-23 4v218l23 4 22 4-27 2-28 1V980zm92 3 3-118h50l1 25 1 25-4-22-4-23h-39v219l28 4 27 4-33 2-33 1 3-117zm166 110 22-4V871l-22-4-23-4 28-2 27-1v240l-27-1-28-2 23-4zm72-113V860l53 2 52 2-47 3-48 4v218l43 4 42 4-47 1-48 2V980zm292 3 3-118 70-1 70-1-67 4-68 4v219h40V900l48 2 47 1-42 4-43 4v189h-61l3-117zm168-3V860l73 2 72 2-67 3-68 4v218l68 4 67 3-72 2-73 2V980zm240 113c0-5 16-8 35-8s35 3 35 8c0 4-16 7-35 7s-35-3-35-7zm172-110 3-118 50-1 50-1-47 4-48 4v218l58 4 57 3-63 2-63 2 3-117zm253 107-6-10 15 6c18 7 21 14 7 14-6 0-13-4-16-10zm-964-26c13-17 26-30 28-27 3 2-8 16-24 31l-28 27 24-31zm-720 0 1-19 5 13c3 7 2 16-1 19-3 4-6-2-5-13zm140 0 1-19 5 13c3 7 2 16-1 19-3 4-6-2-5-13zm1439 12c0-2 8-10 18-17l17-14-14 18c-13 16-21 21-21 13zm-1699-22 1-19 5 13c3 7 2 16-1 19-3 4-6-2-5-13zm1370 9c-1-6-4-20-7-30l-6-18 12 18c6 10 9 23 6 30l-4 12-1-12zm79 2c0-5 5-17 10-25l10-15v10c0 6-5 17-10 25l-10 15v-10zm327-2c-4-3-7-18-7-33v-27l23-19 22-19-19 22-18 22 4 31c5 32 5 33-5 23zm-1586-19 1-19 5 13c3 7 2 16-1 19-3 4-6-2-5-13zm110 0 1-19 5 13c3 7 2 16-1 19-3 4-6-2-5-13zm442 9c9-2 25-2 35 0l17 5h-70l18-5zm470 0c15-2 37-2 50 0l22 4h-100l28-4zm387 3c0-2 15-6 34-8l35-4-5 8c-5 8-64 12-64 4zm224-11-6-15 12-15c7-8 17-15 23-15h11l-19 14-18 13 6 17c4 9 4 16 1 16-2 0-7-7-10-15zm-1290-20c9-14 23-36 32-50l16-25 9 6 9 5-2 42-1 42-6-43-6-42-28 45c-16 25-31 45-34 45s2-11 11-25zm272 15c5-8 11-33 15-55l6-40 2 36 1 35-16 20-15 19 7-15zm-695-16 1-19 5 13c3 7 2 16-1 19-3 4-6-2-5-13zm140 0 1-19 5 13c3 7 2 16-1 19-3 4-6-2-5-13zm-240-10 1-19 5 13c3 7 2 16-1 19-3 4-6-2-5-13zm129-25c-6-22-9-43-6-46 2-3 8 11 11 31l7 36 9-6 9-5v10c0 5-4 12-10 16l-9 6-11-42zm-79 15 1-19 5 13c3 7 2 16-1 19-3 4-6-2-5-13zm230 0 1-19 5 13c3 7 2 16-1 19-3 4-6-2-5-13zm582-24v-45l4 23c2 12 2 32 0 45l-4 22v-45zm870 5v-40l4 23c2 12 2 30 0 40l-5 17 1-40zm-312 15c0-8 4-24 9-35l9-20v15c0 8-4 24-9 35l-9 20v-15zm261-20v-35l5 18c2 9 2 25 0 35l-5 17v-35zm-1591 4 1-19 5 13c3 7 2 16-1 19-3 4-6-2-5-13zm140 0 1-19 5 13c3 7 2 16-1 19-3 4-6-2-5-13zm1029 2v-15l-42-4-43-4 48-1 47-2v20c0 11-2 20-5 20s-5-6-5-14zm121-2 1-19 5 13c3 7 2 16-1 19-3 4-6-2-5-13zm480 12c2-2 15-9 29-15l25-12-19 15c-16 13-49 24-35 12zM905 966c10-14 19-26 22-26 7 0-17 39-28 46l-11 6 17-26zm-454-2 1-19 5 13c3 7 2 16-1 19-3 4-6-2-5-13zm-40-14c0-8 4-24 9-35l9-20v15c0 8-4 24-9 35l-9 20v-15zm55-5c-9-26-7-32 5-12 6 10 9 21 6 23-2 3-7-2-11-11zm140 6c-4-7-5-15-2-18 9-9 19 4 14 18l-4 13-8-13zm1264 4c0-5 5-17 10-25l10-15v10c0 6-5 17-10 25l-10 15v-10zm360 1c0-2 7-7 16-10l15-6-6 10c-6 10-25 14-25 6zm72-21v-30l5 18c2 9 2 23 0 30l-5 12v-30zm-1741-1 1-19 5 13c3 7 2 16-1 19-3 4-6-2-5-13zm90 0 1-19 5 13c3 7 2 16-1 19-3 4-6-2-5-13zm528-11-14-18 18 14c9 7 17 15 17 17 0 8-8 3-21-13zm870 0-14-18 18 14c16 13 21 21 13 21-2 0-10-8-17-17zm-259-10 45-4 8-12 9-12-5 15-4 15-49 1-49 1 45-4zm365-11-6-15 10-10 9-9-1 18-2 19 41-3 42-4 5 9 5 8-49 1-48 1-6-15zm-1584-8 1-19 5 13c3 7 2 16-1 19-3 4-6-2-5-13zm66-3-5-19-28-5-29-4 32-2 32-1 6 21c4 11 5 23 2 25-2 3-7-4-10-15zm486 12c9-2 23-2 30 0l12 5h-60l18-5zm470 0c15-2 37-2 50 0l22 4h-100l28-4zm400 0c9-2 23-2 30 0l12 5h-60l18-5zm-253-16v-16l-27-4-28-4 28-2 28-1 6 15c3 9 3 19-1 22-3 4-6-1-6-10zm-1250-6v-13l-29 4-30 4 5-8c7-12 52-10 59 3 4 6 4 13 1 16-3 4-6 1-6-6zm695-1-20-9h17c9-1 20 4 23 9 7 11 7 11-20 0zm870 0-20-9h17c9-1 20 4 23 9 7 11 7 11-20 0zm-205-12c0-5 14-8 30-8 17 0 30 3 30 8 0 4-13 7-30 7-16 0-30-3-30-7zm348-5c12-2 32-2 45 0l22 4h-90l23-4z"/></g><g fill="#1e83c2" transform="matrix(.1 0 0 -.1 0 300)"><path d="M1355 983V865l70-1 70-1-67 4-67 4-4 114-3 115 1-117zm49 22V905l3 53c2 29 2 74 0 100l-3 47v-100zm-286 48c7-3 16-2 19 1 4 3-2 6-13 5l-19-1 13-5zm84-73v-25l5 13c2 6 2 18 0 25l-5 12v-25zm-331-82-1-27-22-4-23-4 23-2 23-1 5 14c3 8 4 23 1 33l-5 18-1-27zm844-28-30-8 27-1 27-1 6 10c3 6 5 9 3 9-2-1-16-5-33-9zm160 0-30-8 33-1 32-1v10c0 6-1 9-2 9-2-1-16-5-33-9zm-1422-7c9-2 23-2 30 0l12 5h-60l18-5zm140 0c9-2 25-2 35 0l17 5h-70l18-5zm150 0c9-2 23-2 30 0l12 5h-60l18-5zm240 0c9-2 23-2 30 0l12 5h-60l18-5zm100 0c15-2 39-2 55 0l27 4h-110l28-4zm470 0c20-2 54-2 75 0l37 4h-150l38-4zm410 0c15-2 37-2 50 0l22 4h-100l28-4z"/></g></g></svg>